<?xml version="1.0" encoding="utf-8"?><svg viewBox="0 0 36 44" xmlns="http://www.w3.org/2000/svg" xmlns:xlink="http://www.w3.org/1999/xlink"><style>:root>svg{display:none}:root>svg:target{display:block}</style><svg fill="currentColor" viewBox="0 0 21 17" id="arrow" xmlns="http://www.w3.org/2000/svg"><path fill-rule="evenodd" clip-rule="evenodd" d="M8 0l8.414 8.414L8 16.828v-4.58c-2.044-.225-4.124.704-6.293 2.873L0 16.828v-2.414c0-6.15 2.739-9.587 8-9.965V0zm2 4.828v1.586H9c-4.022 0-6.25 1.81-6.84 5.683 2.314-1.681 4.687-2.252 7.083-1.653l.757.19V12l3.586-3.586L10 4.828z"/><path d="M12 0v3l5.414 5.414L12 13.828v3l8.414-8.414L12 0z"/><path fill-rule="evenodd" clip-rule="evenodd" d="M8 0l8.414 8.414L8 16.828v-4.58c-2.044-.225-4.124.704-6.293 2.873L0 16.828v-2.414c0-6.15 2.739-9.587 8-9.965V0zm2 4.828v1.586H9c-4.022 0-6.25 1.81-6.84 5.683 2.314-1.681 4.687-2.252 7.083-1.653l.757.19V12l3.586-3.586L10 4.828z"/><path d="M12 0v3l5.414 5.414L12 13.828v3l8.414-8.414L12 0z"/></svg><svg fill="currentColor" viewBox="0 0 22 22" id="exclamation" xmlns="http://www.w3.org/2000/svg"><path d="M11 16.998a1 1 0 100-2 1 1 0 000 2zM12.004 4.998h-2.001v8h2v-8z"/><path fill-rule="evenodd" clip-rule="evenodd" d="M0 11c0 6.075 4.925 11 11 11s11-4.925 11-11S17.075 0 11 0 0 4.925 0 11zm20 0a9 9 0 11-18 0 9 9 0 0118 0z"/></svg><svg fill="none" viewBox="0 0 24 24" id="facebook" xmlns="http://www.w3.org/2000/svg"><g clip-path="url(#cclip0)"><path d="M15.997 3.985h2.191V.169C17.81.117 16.51 0 14.996 0c-3.159 0-5.323 1.987-5.323 5.639V9H6.187v4.266h3.486V24h4.274V13.267h3.345l.531-4.266h-3.877V6.062c.001-1.233.333-2.077 2.051-2.077z" fill="#2196F3"/></g><defs><clipPath id="cclip0"><path fill="#fff" d="M0 0h24v24H0z"/></clipPath></defs></svg><svg fill="currentColor" viewBox="0 0 30 23" id="hamburger" xmlns="http://www.w3.org/2000/svg"><path fill="#02365B" d="M0 10h30v3H0zM0 20h30v3H0zM0 0h30v3H0z"/></svg><svg fill="currentColor" viewBox="0 0 36 44" id="tablet_check" xmlns="http://www.w3.org/2000/svg"><path d="M24.586 18.586L16 27.172l-4.586-4.586-2.828 2.828L16 32.828l11.414-11.414-2.828-2.828z"/><path fill-rule="evenodd" clip-rule="evenodd" d="M11.992 2C13.496.726 15.678 0 18 0s4.504.726 6.008 2H26a4 4 0 014 4h2a4 4 0 014 4v30a4 4 0 01-4 4H4a4 4 0 01-4-4V10a4 4 0 014-4h2a4 4 0 014-4h1.992zM26 12c1.48 0 2.773-.804 3.465-2H32v30H4V10h2.535A3.998 3.998 0 0010 12h16zM13.715 6l.598-.69C14.97 4.554 16.38 4 18 4s3.03.553 3.687 1.31l.598.69H26v2H10V6h3.715z"/></svg><svg fill="currentColor" viewBox="0 0 36 44" id="tablet_text" xmlns="http://www.w3.org/2000/svg"><path d="M10 30v-4h12v4H10zM10 18v4h16v-4H10z"/><path fill-rule="evenodd" clip-rule="evenodd" d="M11.992 2C13.496.726 15.678 0 18 0s4.504.726 6.008 2H26a4 4 0 014 4h2a4 4 0 014 4v30a4 4 0 01-4 4H4a4 4 0 01-4-4V10a4 4 0 014-4h2a4 4 0 014-4h1.992zM26 12c1.48 0 2.773-.804 3.465-2H32v30H4V10h2.535A3.998 3.998 0 0010 12h16zM13.715 6l.598-.69C14.97 4.554 16.38 4 18 4s3.03.553 3.687 1.31l.598.69H26v2H10V6h3.715z"/></svg><svg fill="currentColor" viewBox="0 0 22 22" id="user" xmlns="http://www.w3.org/2000/svg"><path fill-rule="evenodd" clip-rule="evenodd" d="M11 14c-2.24 0-4-1.573-4-5 0-2.244 1.58-4 4-4 2.414 0 4 1.922 4 4.2 0 3.28-1.782 4.8-4 4.8zM9 9c0 2.27.818 3 2 3 1.178 0 2-.702 2-2.8 0-1.25-.784-2.2-2-2.2-1.266 0-2 .816-2 2z"/><path fill-rule="evenodd" clip-rule="evenodd" d="M11 22C4.925 22 0 17.075 0 11S4.925 0 11 0s11 4.925 11 11-4.925 11-11 11zm7.4-5.875a9 9 0 10-14.799 0C4.726 14.638 7.37 14 11 14c3.63 0 6.274.638 7.4 2.125zm-1.435 1.615C16.672 16.687 14.569 16 11 16c-3.57 0-5.672.687-5.965 1.74A8.966 8.966 0 0011 20a8.966 8.966 0 005.965-2.26z"/></svg></svg>